<svg xmlns="http://www.w3.org/2000/svg" viewBox="0,0,256,256" width="auto" height="auto"><defs><linearGradient x1="32" y1="10.391" x2="32" y2="54.391" gradientUnits="userSpaceOnUse" id="brodly-color-1"><stop offset="0" stop-color="#ef4444"/><stop offset="1" stop-color="#eab308"/></linearGradient><linearGradient x1="32" y1="14.304" x2="32" y2="50.067" gradientUnits="userSpaceOnUse" id="brodly-color-2"><stop offset="0" stop-color="#fca5a5"/><stop offset="1" stop-color="#fde047"/></linearGradient></defs><g fill="none" fill-rule="none" stroke="none" stroke-width="1" stroke-linecap="butt" stroke-linejoin="miter" stroke-miterlimit="10" stroke-dasharray="" stroke-dashoffset="0" font-family="none" font-weight="none" font-size="none" text-anchor="none"><g transform="translate(252.001,-4.001) rotate(90) scale(4,4)"><path d="M51.713,53v0l-39.427,-0.002c-1.811,0 -3.368,-0.9 -4.275,-2.47c-0.904,-1.569 -0.903,-3.368 0.002,-4.936l19.715,-34.127c0.906,-1.567 2.463,-2.465 4.273,-2.465c1.81,0 3.367,0.898 4.273,2.465l19.712,34.13c0.907,1.566 0.908,3.366 0.002,4.937c-0.907,1.569 -2.466,2.468 -4.275,2.468zM32.001,11c-1.092,0 -1.995,0.521 -2.541,1.467l-19.715,34.126c-0.547,0.946 -0.548,1.989 -0.002,2.937c0.547,0.946 1.45,1.469 2.543,1.469l39.427,0.001c1.093,0 1.996,-0.521 2.543,-1.47c0.547,-0.946 0.547,-1.989 -0.001,-2.935l-19.713,-34.13c-0.546,-0.944 -1.449,-1.465 -2.541,-1.465z" fill="url(#brodly-color-1)" fill-rule="nonzero"/><path d="M12.286,48.998c-0.373,0 -0.624,-0.146 -0.812,-0.471c-0.186,-0.321 -0.186,-0.61 0.002,-0.934l19.715,-34.127c0.187,-0.321 0.437,-0.466 0.81,-0.466c0.373,0 0.623,0.145 0.81,0.468l19.712,34.127c0.188,0.325 0.188,0.613 0.001,0.937c-0.187,0.322 -0.438,0.468 -0.811,0.468v0z" fill="url(#brodly-color-2)" fill-rule="evenodd"/></g></g></svg>